<?xml version="1.0" encoding="UTF-8" standalone="no"?>
<!-- Created with Inkscape (http://www.inkscape.org/) -->

<svg
   viewBox="0 0 200.5096 181.86598"
   version="1.1"
   class="icon"
   id="svg5"
   xml:space="preserve"
   xmlns="http://www.w3.org/2000/svg"
   xmlns:svg="http://www.w3.org/2000/svg"><defs
     id="defs2" /><g
     id="g480"
     style="display:inline"
     transform="translate(-4.5370337,-48.073096)"><path
       style="display:inline;stroke-width:0.352778"
       d="m 100.27314,229.36848 c -4.818555,-1.58993 -8.754605,-5.069 -11.673925,-10.31856 -1.25359,-2.25422 -1.87768,-2.96576 -3.63049,-4.13922 -6.52784,-4.37021 -14.9886,-7.04795 -26.53517,-8.39809 -3.74534,-0.43794 -6.60409,-0.51958 -12.44677,-0.35547 -10.79451,0.30319 -20.13883,1.65471 -31.397226,4.54115 -3.007431,0.77105 -5.9851446,1.48271 -6.6171436,1.58147 -1.387073,0.21675 -2.788474,-0.59663 -3.286969,-1.90777 -0.448747,-1.1803 0.168255,-3.12884 1.204345,-3.80342 0.864281,-0.56271 8.5283956,-2.62756 13.8150456,-3.72202 9.161558,-1.89664 15.078678,-2.50896 26.105558,-2.70148 11.65213,-0.20342 16.95639,0.18191 25.00102,1.81622 6.05202,1.2295 13.5652,4.32234 17.5087,7.20755 4.79959,3.51155 6.32581,5.01764 7.46402,7.36552 1.91871,3.95788 2.69718,4.93356 4.729765,5.92801 1.46665,0.71757 2.40431,0.91752 4.30261,0.91752 4.29358,0 6.46598,-1.43647 8.36356,-5.53031 1.68572,-3.63676 4.95655,-6.62001 11.47616,-10.46711 8.21828,-4.84946 20.72021,-7.33989 36.86528,-7.34372 17.64096,-0.004 38.10092,3.9228 42.7743,8.20985 0.97223,0.89186 0.9936,1.50779 0.10297,2.96847 -1.04426,1.71264 -3.04429,2.14398 -5.62414,1.21293 -4.65258,-1.67909 -15.87718,-4.08413 -24.37674,-5.2231 -6.66878,-0.89364 -21.484,-0.90478 -26.9548,-0.0203 -9.48649,1.53376 -17.25531,4.28162 -23.11098,8.17446 -3.08925,2.05373 -4.35402,3.36552 -5.88583,6.10467 -1.73685,3.10576 -4.41886,5.72143 -7.33612,7.15466 -2.13713,1.04996 -2.82466,1.20816 -5.64444,1.29877 -2.39881,0.0771 -3.71209,-0.0622 -5.19259,-0.5507 z m -3.133575,-20.59121 c -8.08683,-7.5583 -18.70316,-12.51468 -30.33889,-14.1641 -9.12983,-1.2942 -11.69129,-1.45797 -22.75417,-1.4548 -9.2046,0.002 -12.03793,0.12221 -15.34583,0.64767 -4.72232,0.75013 -12.233523,2.62443 -15.522227,3.87331 -2.903587,1.10263 -4.9388886,1.34152 -4.9388886,0.57969 0,-0.81998 3.2688256,-5.24889 4.4984166,-6.09489 1.803991,-1.24119 2.498899,-1.46856 7.719754,-2.52585 10.522515,-2.13093 26.598815,-3.28217 33.143745,-2.37346 1.53574,0.21323 4.30038,0.56557 6.14364,0.78299 10.12128,1.19382 18.77263,4.07167 25.57639,8.50791 4.34804,2.83505 6.47021,4.6527 9.41575,8.06468 1.98792,2.30272 4.75308,6.02283 4.44773,5.98377 -0.0578,-0.007 -0.97827,-0.82951 -2.04542,-1.82692 z m 13.758325,1.2093 c 0,-0.90376 3.77688,-5.88349 6.07865,-8.01459 8.05371,-7.45649 20.55889,-12.32634 36.78386,-14.3246 5.28868,-0.65136 14.66611,-0.58184 20.81388,0.15429 12.06409,1.44456 14.12588,1.7516 17.04735,2.5387 4.40445,1.18665 5.49704,1.73175 6.8637,3.42432 1.58248,1.95988 3.21975,4.48002 3.03232,4.66745 -0.0811,0.0811 -1.81085,-0.24859 -3.84399,-0.73257 -28.99608,-6.90243 -48.97538,-6.63876 -68.30079,0.9014 -6.64247,2.59167 -12.25141,6.01874 -16.97567,10.37214 -0.82462,0.75989 -1.49931,1.21594 -1.49931,1.01346 z m -3.49485,-8.79198 c 7.08583,-11.64964 17.58538,-18.87321 32.48468,-22.34911 8.29184,-1.93442 12.5691,-2.43174 23.0449,-2.67942 11.18894,-0.26455 12.56721,-0.0639 14.95866,2.1773 0.89204,0.83602 2.31797,2.50919 3.16874,3.71817 1.4208,2.019 1.47829,2.18124 0.70556,1.99094 -0.46272,-0.11395 -3.30192,-0.57102 -6.30935,-1.01572 -4.75043,-0.70242 -6.83386,-0.80784 -15.875,-0.80327 -11.33728,0.006 -13.24011,0.20802 -21.87222,2.32521 -7.35244,1.80333 -15.91461,5.3508 -20.89373,8.65665 -1.4113,0.93703 -4.28933,3.41644 -6.39563,5.5098 -2.66551,2.64914 -3.58249,3.3998 -3.01661,2.46945 z m -7.441255,-1.94242 c -4.17741,-3.72968 -15.15622,-10.41709 -20.47268,-12.47031 -6.62097,-2.55702 -14.34989,-4.08314 -24.05722,-4.75025 -6.69362,-0.46 -14.54457,-0.0108 -22.09686,1.2644 -2.78688,0.47055 -5.20723,0.76891 -5.37857,0.66301 -1.04116,-0.64347 3.46036,-5.69953 6.14108,-6.89759 1.59513,-0.71289 2.52699,-0.83758 7.12675,-0.95361 6.87978,-0.17355 16.35821,0.46495 22.57062,1.52045 10.09332,1.71486 20.12901,5.47611 25.55922,9.57925 1.2478,0.94286 2.87275,2.14549 3.61101,2.67252 1.29214,0.92244 4.86323,4.53777 6.22629,6.30343 0.929395,1.20387 2.645655,4.21093 2.488915,4.36077 -0.0721,0.0689 -0.84542,-0.51253 -1.718555,-1.29207 z"
       id="path454" /></g><g
     id="g483"
     style="display:inline;"
     transform="translate(-3.5487183,-51.037026)"><path
       style="stroke-width:0.352778"
       d="m 138.99359,179.07328 c -92.662393,-119.382187 -46.331197,-59.69109 0,0 z m -38.05234,6.58525 c 0.21382,-5.48941 0.70693,-8.04558 2.38897,-12.38392 0.60068,-1.54928 0.81938,-2.82591 0.81585,-4.7625 -0.006,-3.41459 -0.7892,-4.96741 -4.23692,-8.40256 -2.67293,-2.66318 -3.59832,-4.48504 -3.13239,-6.16687 0.4333,-1.56402 1.34893,-3.42224 1.6863,-3.42224 0.19063,0 2.48065,2.16262 5.08893,4.80583 2.60828,2.64321 4.85986,4.66727 5.00351,4.49792 0.14365,-0.16936 1.30454,-1.57792 2.57976,-3.13014 2.95032,-3.5912 6.20535,-6.69532 9.00242,-8.58506 2.39531,-1.6183 2.8724,-2.24601 2.72536,-3.58577 -0.21915,-1.99678 -0.20125,-8.3344 0.0251,-8.90764 0.30811,-1.4186 0.81221,-1.01709 2.11957,-1.47808 1.53143,-0.2873 2.92554,0.29859 3.34677,1.40652 0.19055,0.50118 0.34646,2.42706 0.34646,4.27972 v 3.36848 l 1.67569,-0.23599 c 0.92163,-0.12979 2.86632,-0.47792 4.32153,-0.77362 3.8233,-0.7769 8.76848,-1.07528 12.45732,-0.75164 3.02325,0.26524 3.31737,0.2293 5.04635,-0.61661 2.14186,-1.04792 3.98039,-2.95694 5.23814,-5.43897 0.71128,-1.40364 0.89543,-2.29067 0.89981,-4.3342 0.006,-2.67351 0.71516,-6.42975 1.33059,-7.04519 0.2391,-0.2391 0.91688,-0.0786 2.06745,0.48949 2.3178,1.14445 3.02178,2.54014 2.72895,5.41034 -0.209,2.04844 -0.18199,2.14563 0.70928,2.55172 0.7348,0.3348 1.38213,0.31751 3.12781,-0.0836 1.21068,-0.27814 3.84433,-0.67226 5.85254,-0.87581 4.48501,-0.45461 5.83656,-0.0319 6.20672,1.94126 0.48061,2.56188 -0.82558,3.46904 -5.80107,4.02887 -2.03729,0.22923 -4.89479,0.73127 -6.35,1.11565 -4.33803,1.14584 -9.7774,4.10085 -8.96411,4.86989 0.2943,0.2783 8.08845,4.80527 11.14295,6.47202 0.71328,0.38922 2.06266,1.28513 2.99861,1.99091 2.14802,1.61979 2.45682,3.16342 0.98318,4.91474 -1.23349,1.46592 -2.33928,1.42743 -4.75756,-0.16561 -8.14763,-5.36724 -13.99931,-7.90651 -21.05634,-9.13715 -6.81502,-1.18844 -13.39942,-0.16113 -20.40061,3.18295 -10.45191,4.99229 -17.61706,14.59858 -20.45518,27.4242 -0.31121,1.40636 -0.64761,4.93827 -0.74757,7.84869 -1.57065,11.82907 -6.33409,8.25836 -6.01417,-0.31603 z m 18.08694,-3.47629 c -0.10506,-0.82461 -0.59183,-4.59493 -1.08171,-8.37847 -0.48988,-3.78354 -0.88989,-7.45066 -0.88892,-8.14915 0.002,-1.34159 1.1305,-3.18068 3.06488,-4.99415 l 1.03731,-0.97248 0.60057,1.25942 c 0.59357,1.24471 0.94459,3.15625 1.64351,8.9498 0.19724,1.63493 0.60496,3.34858 0.90606,3.80811 0.92132,1.40612 2.00829,1.58135 8.14931,1.31376 3.13417,-0.13657 6.30917,-0.12847 7.05556,0.018 1.32377,0.25977 1.27484,0.28709 -1.99433,1.11385 -7.18255,1.81644 -12.90786,4.08356 -16.46773,6.52095 -0.81107,0.55532 -1.5554,1.00968 -1.65408,1.00968 -0.0987,0 -0.26536,-0.67469 -0.37043,-1.49931 z m -32.48415,0.0155 c -3.44542,-2.15588 -10.033025,-4.69786 -15.345837,-5.92153 -5.277937,-1.21563 -5.095586,-1.36326 1.425515,-1.15404 7.060879,0.22653 9.705662,-0.15207 10.203162,-1.46058 0.16013,-0.42116 0.73621,-2.88101 1.28019,-5.46633 0.54398,-2.58532 1.220123,-4.42285 1.116307,-4.08595 -0.10156,0.32958 0.110323,-0.38893 0.275723,-1.48295 0.338207,-2.23706 1.207732,-6.02408 1.31491,-6.46144 0.27937,-1.22754 0.522346,-3.03312 0.80393,-4.16031 1.56467,-6.2048 5.95724,-16.10434 8.65978,-19.51657 1.36482,-1.72323 1.19855,-2.75185 -0.64761,-4.00634 -1.49407,-1.01525 -2.82233,-1.10104 -4.85274,-0.31342 -6.63897,2.57532 -9.970107,3.3022 -15.133313,3.3022 -5.959274,0 -11.673625,-1.88919 -17.145855,-5.6685 -3.099696,-2.14076 -7.36425,-6.52895 -9.367118,-9.63869 l -0.656745,-1.0197 2.807071,0.16611 c 3.56067,0.21072 5.125953,0.91326 9.136549,4.10074 3.612106,2.87077 7.124393,4.74892 10.427466,5.57594 2.890065,0.72362 9.855948,0.50671 12.523615,-0.38997 2.95433,-0.99303 3.70416,-1.31414 3.70416,-1.58625 0,-0.14345 -0.99218,-0.79645 -2.20486,-1.4511 -12.979218,-7.00671 -29.520591,-10.54131 -49.363284,-10.54805 -4.791583,-0.002 -4.830166,-0.008 -5.55625,-0.93116 -1.459521,-1.85548 -0.645337,-4.36886 1.597611,-4.9318 0.514583,-0.12916 4.844556,-0.1438 9.622166,-0.0326 6.493309,0.1512 9.835272,0.39472 13.236113,0.9645 5.215964,0.87389 6.210173,0.71299 6.210173,-1.00506 0,-1.39608 -1.119293,-4.51736 -2.711235,-7.560616 -1.881184,-3.59619 -7.34744,-9.03283 -11.223488,-11.16268 -4.636304,-2.54761 -5.35438,-3.5133 -4.229682,-5.68823 1.188731,-2.29875 2.927615,-2.22494 7.133365,0.30279 8.604433,5.17141 13.780379,11.74081 16.166014,20.518156 1.704731,6.27215 2.205648,6.95157 5.977527,8.10764 2.643448,0.81021 6.316743,2.1072 11.05744,3.90421 3.47234,1.31624 3.76783,1.18871 3.74073,-1.61447 -0.0226,-2.33782 -0.57192,-3.00975 -4.36863,-5.34369 -6.80883,-4.18557 -10.693595,-8.517336 -13.530708,-15.087606 -1.269379,-2.93968 -3.072444,-9.81995 -3.072444,-11.72407 0,-1.81603 3.518398,-1.83768 5.194064,-0.032 0.450416,0.48537 1.105038,2.24349 1.665513,4.47309 1.050611,4.17935 2.825951,7.7342 4.679089,10.4023 1.260672,1.732291 1.99061,2.186944 4.103521,3.79328 1.195205,0.96994 2.863195,2.172516 3.706655,2.672386 1.77833,1.05393 1.85655,0.99741 2.7423,-1.981566 1.14401,-3.84756 0.52859,-7.68211 -1.81806,-11.32787 -0.544133,-0.457317 -1.004267,-1.243671 -1.411333,-1.668251 -0.670791,-0.698408 -1.099387,-1.397589 -2.457577,-2.730239 -5.945547,-5.83373 -13.267129,-9.09993 -22.558241,-10.06337 -1.822157,-0.18895 -3.705412,-0.52233 -4.185014,-0.74085 -1.950321,-0.88863 -2.011031,-3.76478 -0.104669,-4.95893 0.910428,-0.5703 1.481903,-0.64979 3.388198,-0.47131 5.602676,0.52458 11.749409,1.94321 15.537046,3.58586 1.165748,0.50557 2.234618,0.80407 2.375274,0.66333 0.509154,-0.50944 0.216133,-8.77509 -0.390221,-11.00744 -0.801264,-2.94991 -0.744562,-3.75401 0.341284,-4.83986 1.276107,-1.2761 3.392735,-1.30711 4.208787,-0.0617 1.343706,2.05076 1.986196,5.7778 2.040706,11.83791 l 0.0524,5.82713 1.20211,2.46315 c 0.84568,1.73281 1.96805,3.2215 3.78531,5.02079 1.42076,1.4067 2.78481,2.55763 3.03122,2.55763 0.45426,-2e-5 5.92726,-11.05327 5.92002,-11.95605 -0.002,-0.26993 -1.25664,-1.70862 -2.78772,-3.1971 -1.87481,-1.82263 -3.14975,-3.4313 -3.90459,-4.92663 -1.22515,-2.427 -2.48386,-6.85811 -2.48386,-8.74407 0,-2.30741 2.59989,-3.7132 4.459,-2.41102 0.85015,0.59547 1.28682,1.59361 2.0804,4.75539 1.09385,4.35818 3.00492,7.07671 4.97476,7.07671 1.87869,0 2.81945,-0.66968 7.01107,-4.99083 6.31066,-6.50568 7.7653,-7.70917 9.31797,-7.70917 1.42853,0 2.20508,0.60081 2.80041,2.16665 0.50322,1.32358 -0.31114,2.58729 -3.3178,5.14854 -2.60111,2.21577 -6.05933,5.97801 -8.51665,9.26537 -1.57024,2.10064 -4.69804,7.15376 -4.69804,7.58992 0,0.4982 4.65764,-0.20374 6.04363,-0.91082 1.23557,-0.63034 2.25492,-1.762 3.83381,-4.2562 1.85783,-2.93483 6.57752,-6.49192 10.84825,-8.17597 l 1.49931,-0.59122 0.0513,0.96728 c 0.22537,4.25085 -1.11767,6.40779 -5.89122,9.46139 -3.19578,2.04432 -2.89579,3.32365 0.99258,4.23283 1.35665,0.31721 1.47638,0.67114 0.958,2.83199 -0.72041,3.003 -1.1046,3.19274 -5.04102,2.48963 -4.02569,-0.71906 -5.76143,-0.73306 -9.20469,-0.0743 -6.40133,1.22477 -8.801,3.30669 -10.21461,8.862 -1.91895,7.54128 -2.71031,13.866296 -2.73238,21.838696 -0.0179,6.47388 0.007,6.71506 0.75418,7.32014 0.42499,0.34414 1.04714,0.6257 1.38255,0.6257 0.56106,0 1.42866,-1.30899 1.42866,-2.15549 0,-0.19713 0.50948,-1.41479 1.13218,-2.70592 1.14579,-2.37572 5.55974,-7.48581 6.46603,-7.48581 0.72346,0 2.23111,2.0288 2.47543,3.3311 0.27946,1.48969 0.0546,2.20673 -1.11249,3.54807 -2.61842,3.00927 -4.02226,6.10934 -4.02226,8.88229 0,0.83856 0.0997,1.52465 0.22164,1.52465 0.73444,0 4.15318,-2.37114 5.5097,-3.82138 2.57137,-2.749 2.91171,-3.62187 2.91171,-7.46751 0,-3.09822 -0.0911,-3.53776 -1.20555,-5.81854 -0.82848,-1.6955 -2.02248,-3.29543 -3.81744,-5.11529 -1.43655,-1.45647 -2.77287,-2.940716 -2.96959,-3.298336 -0.8069,-1.46682 0.8255,-4.11228 2.53751,-4.11228 0.52258,0 1.54623,0.47514 2.28007,1.05833 2.15009,1.70868 3.22501,1.49537 6.19383,-1.22911 2.52433,-2.31657 8.12368,-5.47366 9.70797,-5.47366 0.98133,0 1.74563,0.90234 2.27172,2.682 0.58633,1.98346 0.12042,2.7158 -2.57638,4.04968 -3.22686,1.59606 -6.43609,3.829486 -7.08773,4.932626 -0.78117,1.3224 -0.72255,4.03229 0.16217,7.4974 0.40374,1.5813 0.84261,3.06902 0.97525,3.30604 0.29065,0.51937 14.02201,-10.83037 14.5772,-12.048866 0.28948,-0.63533 0.1488,-1.28586 -0.69766,-3.22609 -4.50996,-10.33769 -5.2132,-23.53293 -1.91564,-35.94418 1.14118,-4.29512 1.93266,-5.30215 3.89703,-4.95837 0.73294,0.12827 1.65516,0.62078 2.1072,1.12533 0.89944,1.00394 0.86992,1.56177 -0.3145,5.94261 -0.36615,1.3543 -0.66573,3.06086 -0.66573,3.79236 0,1.10183 0.12299,1.33001 0.71688,1.33001 1.45607,0 3.29534,-1.11267 5.75476,-3.48135 2.89248,-2.78577 3.64277,-3.12926 5.14194,-2.35401 2.70299,1.39777 2.34324,3.55435 -1.18077,7.07836 -2.65304,2.65303 -4.22788,3.65109 -7.58197,4.80507 -1.07008,0.36816 -2.38741,1.09265 -2.92739,1.60999 -0.87872,0.84187 -0.98174,1.18366 -0.9813,3.25586 7e-4,4.11966 1.29868,10.14801 3.02522,14.05201 l 0.86858,1.96403 1.08923,-1.02956 c 4.94637,-4.67543 10.49341,-13.87212 12.64307,-20.96151 1.06666,-3.51775 1.51828,-4.00138 3.52526,-3.77517 1.79414,0.20223 2.83704,1.18714 2.83704,2.6793 0,0.51845 -0.7114,2.99621 -1.5809,5.50613 -0.97224,2.80652 -1.45485,4.68954 -1.2535,4.8909 0.66889,0.66888 5.63512,0.69694 8.47692,0.0479 3.22564,-0.73672 4.20053,-0.57532 5.03257,0.83322 1.45968,2.47105 0.16557,4.14952 -3.98319,5.16623 -2.08061,0.50987 -3.29449,0.575 -6.81651,0.36569 -6.75289,-0.40131 -6.60373,-0.41286 -7.42721,0.57558 -0.40615,0.48751 -1.69095,2.2139 -2.85512,3.83641 -1.16417,1.6225 -4.49792,5.36567 -7.40833,8.318136 -4.69131,4.7591 -7.50869,7.24505 -16.52194,14.57829 -1.30062,1.0582 -2.58875,2.26585 -2.86251,2.68365 -0.48191,0.7355 -0.43402,0.77332 1.50585,1.18913 1.10198,0.23621 2.55922,0.56974 3.23832,0.74119 4.51369,1.13953 4.95758,1.18687 7.32589,0.78119 1.30009,-0.22269 2.41935,-0.57154 2.48724,-0.77522 0.0679,-0.20367 0.33776,-0.37032 0.59971,-0.37032 0.67304,0 3.68961,-3.1417 4.23779,-4.41358 0.25179,-0.5842 0.62715,-2.27972 0.83412,-3.76781 0.79407,-5.70913 3.57891,-10.15699 8.30003,-13.256546 3.08321,-2.02422 5.84855,-1.19068 5.84855,1.762856 0,1.15522 -0.25308,1.48084 -2.80601,3.61016 -3.08377,2.5721 -4.67211,4.90735 -5.35759,7.87698 -0.55769,2.41604 -0.0789,3.07399 1.97297,2.71113 0.78547,-0.13891 1.93558,-0.22906 2.55581,-0.20032 2.03728,0.0944 5.79355,-0.6823 7.51256,-1.55338 2.55798,-1.29623 4.37087,-3.64739 5.27912,-6.84656 1.25407,-4.41731 2.10293,-5.92251 5.01671,-8.895626 2.37747,-2.42588 2.88234,-2.78009 3.96263,-2.78009 1.6024,0 3.03047,1.44334 3.03047,3.06288 0,0.87761 -0.471,1.66591 -2.10996,3.531386 -2.20427,2.50892 -6.10811,9.73693 -6.501,12.03671 -0.25125,1.47066 0.51407,3.35776 1.66851,4.11418 1.66034,1.08789 6.56733,2.97376 9.10351,3.49868 3.2503,0.67272 3.97185,1.35205 3.97185,3.73948 0,2.51704 -0.65471,3.11561 -2.78467,2.54593 -0.87696,-0.23455 -2.20098,-0.42646 -2.94226,-0.42646 -2.03675,0 -5.62281,-1.30792 -7.97618,-2.9091 -4.99257,-3.39684 -9.32819,-4.55437 -14.40078,-3.84475 -3.55848,0.49781 -8.8168,2.12594 -13.83597,4.28404 l -1.76389,0.75842 1.5875,1.28682 c 3.06543,2.48481 6.92914,6.61853 8.08277,8.64758 0.64085,1.12718 1.09592,2.11868 1.01125,2.20335 -0.0847,0.0847 -0.88341,0.25392 -1.77499,0.37613 -2.76373,0.37881 -3.95343,-0.0589 -6.53865,-2.40543 -4.38792,-3.98286 -8.12921,-6.33319 -11.71649,-7.36044 -0.87312,-0.25003 -1.81032,-0.62523 -2.08266,-0.83378 -2.51071,-1.26063 -5.10028,-0.85455 -8.21157,-1.03204 -6.18791,-0.35848 -7.0889,-0.14678 -9.10023,2.1382 -1.80458,2.05011 -1.8425,3.08142 -0.17283,4.69973 1.52749,1.48051 3.04377,4.26356 3.45305,5.00475 0.56073,0.7363 2.07338,3.11549 2.21087,3.54048 0.60316,0.52593 2.61446,3.45484 2.61446,4.58578 0,1.73888 -3.22328,4.25391 -4.71716,3.68066 -0.26698,-0.10245 -0.58889,-0.73785 -0.71536,-1.41199 -0.12647,-0.67415 -0.71715,-1.83776 -1.31262,-2.5858 -1.08846,-1.55272 -1.45431,-2.08333 -2.01313,-3.07204 -0.49822,-0.55482 -0.66117,-0.99827 -0.92053,-1.45484 -0.3775,-0.49401 -0.66212,-1.05046 -1.08201,-1.68969 -1.3469,-2.07568 -2.67199,-3.4338 -3.3503,-3.4338 -0.31545,0 -0.97843,0.43657 -1.47328,0.97014 -0.97336,1.04953 -4.256687,7.44414 -4.657566,8.42041 -0.308404,0.85956 -0.351463,0.77067 -0.667382,1.66937 -0.343611,0.77044 -0.539552,1.82454 -1.315662,4.19624 -0.77611,2.37171 -1.41354,4.55275 -1.41651,4.84677 -0.184946,0.70612 -0.302828,0.84433 -0.487036,1.49336 -0.0926,0.58923 -1.03025,4.58637 -1.206682,5.28253 -0.08089,0.85601 -0.106481,0.7526 -0.235742,1.59004 -0.37463,2.30768 -1.64751,11.8643 -2.04449,15.34969 l -0.43037,3.77868 -1.76389,-1.10371 z M 33.362785,157.67387 c -0.680441,-0.71431 -0.970139,-1.38799 -0.970139,-2.25604 0,-0.89643 0.267444,-1.48609 0.970139,-2.13895 2.457394,-2.28313 9.685246,-6.08785 16.922994,-8.90823 l 4.311191,-1.67996 -0.657584,-1.2886 c -0.775029,-1.51873 -5.838582,-6.58872 -7.715187,-7.72498 -1.570687,-0.95104 -2.943465,-1.01746 -3.682492,-0.1782 -0.298997,0.33955 -0.947396,1.42341 -1.440889,2.40858 -0.493498,0.98518 -1.424408,2.20853 -2.068689,2.71858 -0.644286,0.51004 -2.123927,1.81549 -3.288094,2.90098 -1.164167,1.0855 -2.572516,2.21775 -3.129661,2.51612 -1.499408,0.80298 -3.044497,0.38145 -4.057896,-1.10707 -0.75092,-1.10298 -0.791317,-1.34187 -0.390538,-2.30944 0.24586,-0.59356 2.077601,-2.50677 4.070538,-4.25158 4.06424,-3.55823 4.742279,-4.40976 4.742279,-5.95575 0,-1.43644 -1.453455,-2.30766 -4.731872,-2.83632 -4.626786,-0.74609 -5.82546,-1.77866 -5.102853,-4.39573 0.474916,-1.72 1.471287,-2.65295 2.833296,-2.65295 1.352466,0 11.640253,3.5426 14.581978,5.0213 5.69836,2.86436 9.720535,6.23984 13.624434,11.43384 1.365514,1.81677 2.809938,3.47832 3.209833,3.69234 1.133147,0.60644 4.530126,0.78794 6.215342,0.33208 1.231243,-0.33306 1.623046,-0.64508 2.028472,-1.6154 0.276366,-0.66144 0.502482,-1.56926 0.502482,-2.01739 0,-0.44813 0.247128,-1.16761 0.54917,-1.59883 0.45927,-0.6557 0.881369,-0.78405 2.578407,-0.78405 1.16514,0 2.31177,0.20659 2.692731,0.48515 0.618727,0.45243 0.63082,0.62138 0.179194,2.50396 -0.731704,3.05008 -0.607582,3.15097 5.927629,4.81827 3.65033,0.93129 4.31396,1.65611 3.57269,3.90215 -0.2626,0.7957 -0.74713,1.77975 -1.07674,2.1868 l -0.59929,0.74009 -3.825091,-0.96646 c -4.640919,-1.17259 -7.935676,-1.65926 -11.296089,-1.66853 -4.495229,-0.0124 -10.54177,1.08277 -15.812333,2.86399 -3.168538,1.07083 -11.925121,5.37827 -14.25295,7.01115 -2.75965,1.93578 -4.137854,2.13918 -5.414412,0.79908 z m 9.660252,-56.5315 c -1.760185,-0.82125 -7.698928,-6.782856 -8.036289,-8.067226 -0.264668,-1.00761 0.746834,-2.49435 2.171838,-3.19225 0.882904,-0.43241 1.14433,-0.41317 2.261327,0.1665 2.071059,1.07477 6.063812,5.38771 7.747921,8.36924 0.850314,1.50539 1.445443,2.837646 1.322511,2.960586 -0.122933,0.12293 -1.056767,0.28164 -2.075191,0.3527 -1.33549,0.0932 -2.2811,-0.0712 -3.392117,-0.58955 z"
       id="path179" /></g></svg>
