<?xml version="1.0" encoding="UTF-8" standalone="no"?>
<svg
   version="1.0"
   width="500.00003pt"
   height="500.00003pt"
   viewBox="0 0 500.00003 500.00003"
   preserveAspectRatio="xMidYMid"
   id="svg6"
   sodipodi:docname="immich.svg"
   inkscape:export-filename="immich-2.svg"
   inkscape:export-xdpi="96"
   inkscape:export-ydpi="96"
   xmlns:inkscape="http://www.inkscape.org/namespaces/inkscape"
   xmlns:sodipodi="http://sodipodi.sourceforge.net/DTD/sodipodi-0.dtd"
   xmlns="http://www.w3.org/2000/svg"
   xmlns:svg="http://www.w3.org/2000/svg">
  <defs
     id="defs10" />
  <sodipodi:namedview
     id="namedview8"
     pagecolor="#ffffff"
     bordercolor="#000000"
     borderopacity="0.25"
     inkscape:showpageshadow="2"
     inkscape:pageopacity="0.0"
     inkscape:pagecheckerboard="0"
     inkscape:deskcolor="#d1d1d1"
     inkscape:document-units="pt"
     showgrid="false" />
  <g
     transform="matrix(0.1,0,0,-0.1,0,500)"
     stroke="none"
     id="g4">
    <path
       id="path946"
       style="stroke-width:7.94387"
       d="m 2459.1504,-5000 a 2303.1846,2479.9526 0 0 0 -60.5859,12.9785 c 120.9976,-2.991 258.4911,-0.7304 370.0634,10.1221 A 2303.1846,2479.9526 0 0 0 2459.1504,-5000 Z m 246.8555,321.0059 c -285.9998,-28 -603.0062,5.9952 -876.0059,94.9951 -174.9998,55.9999 -260.9971,128.0001 -326.9971,270 -21.9999,47.9999 -27.9961,76.9952 -30.9961,154.9951 -6,145.9998 5.9963,175.0051 165.9961,415.0049 75,111.9999 139.002,203.9941 142.002,203.9941 3,0 11.999,-15.9951 18.999,-34.9951 11,-31 24.9932,-42.0059 102.9932,-81.0059 193.9998,-96.9999 369.008,-137.9882 598.0078,-137.9882 224.9998,0 403.9904,40.9961 594.9902,135.9961 81.9999,40.9999 114.0049,69.0049 115.0049,100.0048 0,10 3.9941,17.9883 8.9941,17.9883 16,0 269.0059,-388.001 291.0059,-446.001 18,-49.9999 21.0029,-74.9893 18.0029,-163.9892 -3,-89.9999 -6.9961,-114.004 -30.9961,-164.0039 -39.9999,-85.9999 -94.0049,-151.9962 -160.0048,-195.9961 -104.9999,-69.9999 -384.9964,-144.9991 -630.9961,-168.999 z m -1647.627,694.3652 c -55.1249,3.625 -108.87407,18.1231 -163.37402,43.623 -88.99991,41 -154.00204,105.0099 -247.00195,245.0098 -220.99978,329.9997 -341.99807,692.9985 -367.99805,1102.9981 -16.99998,251.9997 14.99426,368.9991 128.99414,483.999 91.99991,91.9999 247.99621,150.0039 360.9961,134.0039 38.99996,-5 465.00688,-121.001 482.00688,-131.001 3,-2 -9.001,-19.0059 -26.001,-36.0059 -28,-27.9999 -35.0039,-43.9912 -44.0039,-110.9912 -17,-109.9999 -14.9971,-328.0079 3.0029,-433.0078 45,-261.9997 165.007,-502.0021 347.0068,-697.0019 62,-66 79.9962,-80 120.9961,-90 l 48.003,-11.9971 -148.0079,-190.0049 c -160.9998,-205.9998 -214.9981,-253.9883 -322.998,-287.9883 -59.9999,-17.9999 -116.4961,-25.2607 -171.6211,-21.6357 z m 2786.6162,4.8779 c -69.9999,10.5 -137.9883,36.754 -197.9883,77.7539 -28.9999,21 -100.0069,101.0041 -197.0068,224.0039 L 3299.0039,-3485 l 35.9912,7.002 c 49,10.9999 89.006,42.9991 171.0059,138.999 163.9998,191.9998 266.9981,407.0031 307.998,648.0029 19,113.9999 20.0068,332.9904 2.0069,444.9902 -11,68 -18.004,83.0069 -44.0039,107.0069 -17,16 -28.0088,30.0029 -24.0088,33.0029 15.9999,9 440.0068,125.001 482.0068,131.001 165.9998,24 374.9962,-95.9992 450.9961,-258.999 42,-90 51.0088,-175.0129 39.0088,-368.0127 -25,-392.9996 -143.0041,-749.0004 -359.0039,-1080 -111.9999,-170.9999 -191.006,-243.9864 -306.0059,-280.9864 -67.9999,-21.9999 -140.0001,-27.2578 -210,-16.7578 z m -1308.0615,246.5918 c -215.8123,-6.4687 -429.9289,39.6652 -606.9287,134.1651 -77.9999,40.9999 -97.0098,85.9893 -65.0098,148.9892 17,32 61.0098,60 95.0098,60 29,0 77,-26.999 90,-48.999 18,-35 10.9941,-59.9951 -21.0059,-79.9951 l -30,-18.003 63.999,-26.0009 c 95,-38 212.007,-66.003 332.0069,-78.003 169.9998,-17.9999 375.9923,11.003 541.9922,78.003 64.9999,25.9999 65.0087,26.0049 39.0088,40.0049 -78,40.9999 -12.0019,143.9941 82.998,128.9941 67.9999,-11 106.9912,-81.9971 80.9912,-146.9971 -22,-51.9999 -205.9933,-132.0029 -387.9931,-168.0029 -71,-14 -143.131,-21.999 -215.0684,-24.1553 z m -36.9287,163.5352 c -37,-0.375 -73.5098,5.126 -95.0098,16.626 -62.9999,32.9999 -113.9902,104.0049 -114.9902,160.0048 0,19 -4.9981,20.9912 -52.9981,20.9912 -102.9999,-1 -176.0097,59.007 -185.0097,152.0069 -2,27 -1.9932,59.9893 2.0068,73.9892 6,23 170.9972,261.0129 296.9971,428.0127 l 59.0039,75.9961 34.9951,-11.0009 34.9951,-10.0049 v -209.0039 -208.9893 l 22.9981,3.0029 c 21.9999,3 22.0048,4.0002 25.0048,210 l 2.0069,205.9864 30,11.0009 c 34.9999,12 32.9884,14.0096 212.9883,-234.9902 176.9998,-244.9997 180.0048,-251.9981 175.0048,-322.998 -6.9999,-102.9999 -76.9952,-164.0079 -184.9951,-163.0079 -45.9999,0 -52.998,-1.999 -52.998,-18.999 0,-28.9999 -27.9981,-89.9971 -52.9981,-116.997 -12,-13 -39.0039,-33.0079 -59.0039,-43.0079 -23.4999,-11.9999 -60.9981,-18.2431 -97.998,-18.6181 z M 3300,-3402.998 c -60.9999,19.9999 -90,56.9942 -90,113.9941 0,39 56.0069,99.0088 92.0068,99.0088 30,0 57.9932,-29 57.9932,-60 0,-20 2.0069,-21.0088 17.0068,-9.0088 30,25 122.9893,156.9981 163.9893,232.998 93.9999,174.9999 138.999,359.0071 138.999,572.0069 v 136.9922 l -22.998,-20.9912 c -30,-29 -58.001,-28.0078 -86.001,1.9921 -26,28 -31.9971,82.0001 -11.9971,120 32,59 122.9991,72.0127 168.999,23.0127 28,-28.9999 41.9971,-121.003 41.9971,-273.0029 0,-249.9997 -67.9982,-480.0012 -202.998,-686.001 -67,-102.9999 -169.9932,-224.0029 -207.9932,-243.0029 -29,-16 -35.0039,-15.998 -59.0039,-7.998 z m -1642.1191,0.498 c -23.625,6.5 -46.8858,25.502 -77.8858,59.502 -163.9998,179.9998 -261.9981,361.0031 -322.998,603.0029 -19,73.9999 -21.9912,110.9904 -20.9912,279.9902 0,106.9999 5.0009,208 11.0009,225 11,35 64.9903,75 99.9903,75 63.9999,0 123.0029,-69.9942 108.0029,-128.9941 -8,-33 -42.9951,-71.001 -64.9951,-71.001 -10,0 -29.0039,9.0059 -44.0039,21.0059 L 1320,-2318.999 v -135.9961 c 0,-209.9998 40.9933,-380.01 132.9932,-560.0098 40.9999,-77.9999 137.0098,-216.999 170.0097,-243.999 15,-12 16.9922,-11.0029 16.9922,11.9971 0,27.9999 32.003,57.0117 63.0029,57.0117 32,0 86.9971,-63.0088 86.9971,-99.0088 0,-42 -22.002,-83.9981 -52.0019,-97.9981 -32.5,-15.9999 -56.4874,-21.998 -80.1123,-15.498 z m 1455.249,273.6182 c -26.125,-0.125 -52.128,5.8857 -76.1279,17.8857 -45,23 -40.0042,16.9993 -239.004,288.999 l -157.0019,214.9951 21.0059,29.004 c 11.9999,17.9999 25.9951,26.9941 34.9951,23.9941 75.9999,-30 369.0097,-116.002 380.0097,-112.002 26,10 11.9961,35.0098 -29.0039,50.0098 -23.9999,9 -107.9981,37.9991 -187.998,63.999 -140.9999,47 -144.003,49.002 -153.0029,82.002 -4,18 -5,35.9902 0,39.9902 15.9999,16 544.998,180 577.998,180 125.9999,0 216.9941,-145.0001 158.9941,-255 -13.9999,-28 -13.9931,-30.9902 2.0069,-39.9902 134.9998,-77.9999 162.996,-234.0118 60.9961,-342.0117 -43,-45 -85.9952,-62.9883 -154.9951,-62.9883 h -59.004 l -5.9912,-36.0059 c -8,-46.9999 -49.002,-98.999 -97.0019,-123.999 -24.5,-12.5 -50.75,-18.7568 -76.875,-18.8818 z m -1251.0059,2.6367 c -34.8749,4.75 -68.127,19.7383 -95.1269,44.2383 -25,21.9999 -56.9971,86.0019 -56.9971,112.0019 0,18 -6.0001,20.0098 -60,20.0098 -88.9999,0 -153.001,37.002 -191.001,112.0019 -44.9999,87.9999 -32.0048,177.9884 34.9951,242.9883 22,22 49.004,44.0098 59.0039,50.0098 17,9 17.0069,11.9951 2.0069,49.9951 -36,83.9999 -0.01,180.0069 84.9902,227.0068 54,30 116.0052,17.996 400.0049,-74.0039 l 255,-84.0088 V -2465 v -38.9941 l -150,-48.003 c -81.9999,-26.9999 -168.9971,-54.999 -191.9971,-63.999 -41.9999,-15 -55.9999,-40.0098 -30,-50.0098 11,-4 300.003,81.0059 378.003,111.0059 10.9999,4 23.998,-2.9942 37.998,-23.9941 l 22.002,-30 -176.001,-240 c -149.9999,-203.9998 -180.9981,-242.0098 -217.9981,-260.0098 -33.4999,-16.5 -70.0078,-21.9912 -104.8828,-17.2412 z m 601.2451,520.2392 c -38.8749,10.25 -73.8652,36.5108 -94.3652,76.0108 -41,75.9999 -11.0067,155.9883 72.9932,197.9883 39.9999,19.9999 51.001,22.0078 86.0009,13.0078 132.9999,-36 163.998,-191.9972 52.9981,-266.9971 -36,-24.5 -78.752,-30.2597 -117.627,-20.0098 z m -156.372,236.001 c -18,1 -538.9942,174.9981 -563.9942,187.9981 -12,7 -35.0098,33.0039 -50.0097,59.0039 -56,95.9999 -23.998,196.003 82.0019,258.0029 16,10 16.0029,13.0049 3.0029,40.0049 -41.9999,83.9999 -26.9989,166.9903 41.001,234.9902 87.9999,86.9999 197.003,93.0107 288.003,16.0108 l 31.9921,-27.0118 40.0049,32.0069 c 80.9999,63.9999 200.003,45.0028 258.003,-41.9971 l 27.9931,-41.9971 3.0029,-308.0127 3.003,-306.9873 -32.0069,-7.0019 c -38.9999,-9 -40.9962,-7.0106 -165.9961,163.9892 -103.9998,141.9999 -124.9941,163.0088 -143.9941,144.0088 -13,-13 -6.0038,-24.9982 90.9961,-157.998 36,-50 81.9932,-113.0059 102.9932,-141.0059 l 37.0019,-51.0058 -20.9912,-26.9971 c -11,-14 -26.0068,-26.001 -32.0068,-26.001 z m 375.9961,0 c -6,0 -17.9932,12.001 -27.9932,26.001 -20,30 -28.995,14.0109 115.0049,211.0107 99.9999,135.9999 117.0019,172.9981 82.0019,172.9981 -13,0 -59.003,-55.0079 -138.0029,-163.0078 L 2595,-2287.0068 l -32.0068,10.0048 -32.9883,10.0049 v 299.0039 c 0,330.9997 1.9883,340.9952 62.9883,394.9952 62.9999,55.9999 149,57.0028 225,3.0029 l 44.0039,-31.0108 33.0029,30 c 127.9999,111.9999 332.9932,21.0116 342.9932,-152.9882 2,-46 -0.9961,-70.0128 -15.9961,-98.0127 -19,-36 -18.9922,-37.9932 -1.9922,-42.9932 56.9999,-18 109.9951,-97.004 109.9951,-164.0039 0,-53 -15.002,-88.9981 -52.002,-127.9981 -26.9999,-27.9999 -68.9982,-45.003 -307.998,-123.0029 -151.9998,-48.9999 -281.0068,-90 -287.0068,-90 z m 853.5058,320.376 c -22,2.625 -43.001,14.1289 -63.501,34.6289 -28.9999,29 -33.996,39.9971 -30.996,71.9971 3.9999,47.9999 45.0029,76.0048 78.0029,55.0049 20,-12 19.9931,-11.0068 -2.0069,27.9931 -102.9999,180.9998 -301.0021,363.005 -502.0019,460.0049 -79.9999,39 -257.9913,100.0049 -290.9912,100.0049 -3,0 2.001,-11.0049 11.001,-25.0049 33.9999,-52.9999 -24.0108,-107.0049 -91.0108,-85.0049 -71.9999,24 -101.9921,103.004 -61.9922,164.0039 31,46 54.9943,50.9961 158.9942,30.9961 370.9996,-71.9999 700.0021,-313.0003 877.0019,-645 40,-74.9999 41.9961,-82.001 30.9961,-116.001 -7,-20.9999 -24.9893,-42.9902 -43.9892,-54.9902 -24.5,-15 -47.5069,-21.2578 -69.5069,-18.6328 z m -2081.3086,0.7764 c -54.7499,-1.0782 -104.4404,39.5977 -105.1904,98.8476 0,24 15,61.005 45,115.0049 153.9998,269.9997 406.0032,478.9952 693.0029,574.9951 86.9999,29 222.9913,60 260.9912,60 36,0 82.0079,-49.9912 88.0079,-95.9912 4.9999,-36 0.9989,-45.0069 -26.001,-77.0068 -38,-43 -78.0001,-54.0029 -120,-33.003 -38,20 -48.001,50.002 -26.001,82.002 l 17.0068,26.001 -34.0136,-7.002 c -18,-4 -72.9923,-19.9912 -121.9922,-35.9912 -265.9998,-87.9999 -503.9963,-279.9973 -645.9961,-521.9971 l -22.002,-38.0127 24.9903,12.0118 c 21.9999,9.9999 31.0019,8.9902 52.0019,-5.0098 43,-28 30.0097,-106.9991 -24.9902,-138.999 -17.75,-10.5 -36.5645,-15.4903 -54.8145,-15.8496 z m -174.1845,29.8535 c -23,2 -454.003,168.0019 -483.00297,187.0019 -94.99991,60 -180.00979,192.9962 -200.00977,315.9961 -21.99997,133.9999 14.00403,244.0041 134.00391,404.0039 145.99985,195.99983 386.99823,412.99821 607.99803,547.99808 189.9998,115.99988 487.005,238.00099 610.0049,251.00097 208.9998,20.99998 436,-144.99825 480,-352.99804 8,-39.99996 32.001,-493.00591 26.001,-501.00591 -1,-1 -20.0079,7.003 -43.0078,18.003 l -40.9864,19.9951 -125.0097,-24.9902 c -200.9998,-41 -384.0021,-121.0041 -547.002,-239.0039 -142.9998,-103.9999 -307.9991,-302.009 -393.999,-474.0088 -32,-65 -34.9971,-76.9981 -26.9971,-112.9981 5,-22 6.0069,-39.9941 2.0069,-38.9941 z m 2431.9921,0.9961 4.9952,48.999 c 4,45.9999 0.011,56.005 -58.9893,160.0049 -104.9999,183.9998 -251.0109,341.9981 -421.0107,457.998 -132.9999,89.9999 -353.9885,176.001 -527.9883,206.001 -79.9999,13 -86.9991,13.0049 -123.999,-4.9951 -22,-11 -40.001,-18.0069 -41.001,-17.0069 -3,7 14.9951,449.9991 19.9951,483.99907 9,64.99994 68.002,172.99811 127.002,232.99805 90.9999,91.99991 246.9923,150.00389 361.9921,134.0039 79,-9.99999 267.0051,-78.00007 415.0049,-150 234.9998,-112.99988 426.9973,-252.00604 611.9971,-441.00586 175.9998,-179.99986 274.999,-315.99716 303.999,-416.99706 26,-87.9999 18.0117,-223.0001 -17.9883,-300 -65.9999,-143.9999 -138.0138,-205.9923 -319.0136,-271.9922 -68,-25 -170.9991,-63.0088 -228.9991,-84.0088 z"
       transform="scale(1,-1)" />
  </g>
</svg>
