<?xml version="1.0" standalone="no"?>
<!DOCTYPE svg PUBLIC "-//W3C//DTD SVG 20010904//EN"
 "http://www.w3.org/TR/2001/REC-SVG-20010904/DTD/svg10.dtd">
<svg version="1.0" xmlns="http://www.w3.org/2000/svg"
 width="200.000000pt" height="200.000000pt" viewBox="0 0 200.000000 200.000000"
 preserveAspectRatio="xMidYMid meet">

<g transform="translate(0.000000,200.000000) scale(0.100000,-0.100000)" stroke="none">
<path d="M788 1936 c-198 -35 -405 -136 -553 -270 l-50 -45 70 -65 70 -64 30
28 c17 15 66 52 110 82 347 235 818 204 1134 -74 l45 -39 68 68 68 68 -41 35
c-154 129 -311 214 -474 256 -124 32 -354 41 -477 20z"/>
<path d="M880 1604 c-83 -16 -189 -48 -233 -70 -79 -40 -207 -135 -207 -154 0
-9 29 -42 64 -73 l63 -56 34 28 c219 180 530 184 748 11 l53 -42 67 66 66 67
-40 35 c-93 82 -195 136 -321 169 -59 16 -247 28 -294 19z"/>
<path d="M344 1277 c-106 -160 -152 -325 -141 -497 22 -320 234 -594 539 -695
111 -36 275 -45 398 -21 236 46 464 231 558 452 103 245 77 538 -68 749 l-32
47 -68 -67 -68 -67 39 -72 c49 -92 69 -170 69 -273 0 -175 -49 -295 -174 -419
-120 -120 -247 -174 -411 -174 -258 0 -481 161 -562 405 -21 64 -26 100 -27
180 0 114 17 184 70 285 l34 66 -62 67 c-35 37 -65 67 -68 67 -3 0 -15 -15
-26 -33z"/>
<path d="M900 1259 c-51 -10 -181 -72 -205 -99 -22 -24 -12 -41 55 -100 l59
-51 42 28 c36 23 55 29 121 32 72 3 82 1 134 -29 l57 -32 66 66 66 67 -25 19
c-56 45 -133 82 -197 95 -75 16 -107 17 -173 4z"/>
<path d="M931 943 c-50 -26 -76 -66 -75 -117 2 -76 54 -126 134 -126 87 0 148
107 106 188 -31 61 -106 86 -165 55z"/>
</g>
</svg>
