<?xml version="1.0" encoding="UTF-8" standalone="no"?>
<svg
   version="1.0"
   width="251.97784pt"
   height="439.93265pt"
   viewBox="0 0 251.97784 439.93265"
   preserveAspectRatio="xMidYMid"
   id="svg1065"
   xmlns="http://www.w3.org/2000/svg"
   xmlns:svg="http://www.w3.org/2000/svg">
  <defs
     id="defs1069" />
  <g
     transform="matrix(0.1,0,0,-0.1,-460.00049,520.49039)"
     stroke="none"
     id="g1063">
    <path
       id="rect2329"
       style="stroke-width:7.5"
       d="m 5820,-5201.001 c -87.9998,8 -91.0064,6.0041 132.9932,59.0039 86.9998,20 159.0048,40.9922 160.0048,46.9922 4,23 -139.9974,16 -296.997,-15 -86.9998,-17 -160.0078,-29.001 -163.0078,-26.001 -7,6 173.005,96.0012 265.0048,131.001 39,16 71.9971,32.0059 71.9971,36.0059 0,14 -66.9971,49 -116.9971,60 -41.9998,10 -66.9912,9.0047 -140.9912,-4.9951 -142.9996,-26 -257.007,-16.0067 -317.0068,27.9931 -18,13 -13.9998,15.9942 60,53.9942 118.9998,59.9998 123.9951,64.0021 139.9951,157.0019 15,85.9998 13.0106,95.0098 -13.9892,95.0098 -48,0 -261.0059,130.9902 -261.0059,159.9902 0,4 38.9932,11.0039 87.9932,14.0039 150.9996,11 235.0099,24.0069 290.0097,47.0069 28,11.9998 52.002,24.9892 52.002,28.9892 0,5 -41.0108,29.0049 -91.0108,55.0049 -49.9998,26 -87.9902,48.9982 -84.9902,52.998 4,3 60.9943,4.9991 128.9941,3.9991 l 122.0069,-1.9922 225,176.001 c 410.9992,319.9992 521.9931,461.9896 522.9931,673.9892 1,145.9998 -55.9914,283.0061 -170.9912,411.0059 -128.9996,141.9996 -264.0092,216.9943 -504.0088,278.9941 -212.9994,55 -356.0052,136.009 -490.0048,279.0088 -84,87.9998 -119.9942,141.0002 -173.9942,255 -62.9998,132.9998 -86.997,242.9963 -86.997,390.9961 0,133.9998 17.0029,223.9973 63.0029,341.9971 176.9996,459.99902 691.9902,712.00065 1153.9892,566.00095 89,-27.99996 197.0051,-78.99131 265.0049,-125.99121 68,-46.99994 188.9971,-165.00884 236.9971,-234.00884 229.9996,-320.9992 226.0053,-795.9937 -8.9941,-1107.9931 -48,-65 -168.9952,-185.0098 -184.9952,-185.0098 -5,0 -83.0021,43.0059 -172.0019,96.0059 -88.9998,52.9998 -204.0108,115.999 -256.0108,138.999 l -93.999,42.9932 71.001,22.0019 c 220.9996,71.9998 355.0096,263.0112 335.0098,481.0108 -33,360.9992 -425.0065,547.9917 -726.0059,346.9921 -220.9996,-146.9996 -269.0016,-433.9927 -112.002,-661.9921 39,-57 125.0042,-117.0108 239.004,-166.0108 362.9992,-156.9996 475.9933,-207.999 537.9931,-243.999 91.9998,-54 276.008,-235.9904 343.0078,-339.9902 140.9998,-217.9996 221.9932,-532.0112 192.9932,-751.0108 -36,-264.9994 -129.9979,-389.0014 -506.9971,-671.001 C 6339.9994,-4357.0055 6309.9951,-4384 6289.9951,-4425 c -30,-61.9998 -19.9998,-95.0029 30,-108.0029 19,-4 137.0022,-11.0039 262.002,-14.0039 197.9996,-5 229.0088,-3.9989 249.0088,11.0009 12.9998,9 31.9931,16.0108 42.9931,16.0108 19,0 116.001,-90.9992 116.001,-108.999 0,-16 -42.9934,-21.0059 -177.9932,-21.0059 -131.9996,0 -192.0009,-11.9961 -161.0009,-30.9961 8,-5 115.9925,-9.0088 241.9921,-9.0088 252.9996,0 244.0077,3.0057 208.0079,-68.9941 -22,-42 -84.0012,-101.0059 -131.001,-126.0059 -30,-15 -33.0039,-14.9892 -44.0039,1.0108 -11,14.9998 -24.0002,15.9902 -90,9.9902 -118.9998,-11 -171.9963,-34.9971 -225.9961,-101.9971 -27,-33.9998 -63.0031,-64.9951 -93.0029,-79.9951 -111.9998,-56.9998 -236.0012,-106.999 -311.001,-123.999 -90.9998,-21 -272.0012,-31.0059 -386.001,-21.0059 z m 707.7979,318.0615 c 13.3104,1.0059 27.456,10.0635 41.206,26.9385 10,12 7.9912,17.001 -9.0088,26.001 -46.9998,25 -95.9902,-15.9961 -54.9902,-45.9961 7.125,-5.25 14.8066,-7.5469 22.793,-6.9434 z m -759.17,916.3184 c -81.3734,-2.3733 -162.1221,1.627 -212.622,12.627 -280.9996,61.9998 -513.0071,241.9945 -632.0069,488.9941 -47.9998,99.9998 -67.9941,166.0072 -83.9941,287.0068 -30,220.9996 50.0023,487.9877 202.0019,666.9873 67,81 206.9924,191.001 241.9922,191.001 15,0 46.9942,-27.9904 98.9942,-84.9902 87.9998,-94.9998 171.0041,-160.0119 284.0039,-222.0117 44.9998,-24 71.0029,-43.9922 63.0029,-46.9922 -8,-2 -43.9953,-12.0059 -79.9951,-21.0059 -139.9998,-36.9998 -250.0002,-117.9904 -300,-219.9902 -21,-43 -24.0088,-64.01 -24.0088,-155.0098 0,-84.9998 3.9982,-115.9933 22.998,-162.9931 32,-81 115.01,-168.004 200.0098,-209.004 61.9998,-30.9998 72.9914,-33.0029 170.9912,-33.0029 98.9998,0 110.0059,2.0069 171.0059,32.0069 83.9998,41.9998 150.001,108.0011 191.001,191.0009 30.9998,63 33.0029,73.0022 33.0029,172.002 0,96.9998 -2.0108,109.9953 -31.0108,169.9951 -16.9998,36 -53.998,91.007 -82.998,122.0068 -29,32 -51.0029,57.9932 -48.0029,57.9932 20.9998,0 154.0117,-48 207.0117,-75 306.9994,-154.9996 469.0017,-489.0024 352.0019,-727.002 -89.9998,-182.9996 -304.0072,-348.999 -527.0068,-408.999 -52.9999,-14.4999 -134.9986,-23.2468 -216.3721,-25.6201 z m -505.6347,1712.6221 c -17,-16 -154.9905,5.9982 -234.9903,37.998 -192.9996,77.9998 -360.9982,249.0071 -412.998,422.0069 -8,26.9998 -15,51.9902 -15,54.9902 0,4 53.9961,-10.9922 120.9961,-31.9922 111.9998,-36 246.9924,-67.0088 361.9922,-84.0088 36.9998,-6 48.0058,-11.9894 51.0058,-28.9892 3,-11 9.9961,-50.0012 15.9961,-86.001 14,-75.9998 47.0041,-162.01 89.0039,-230.0098 16,-26 26.9942,-50.9941 23.9942,-53.9941 z"
       transform="scale(1,-1)" />
  </g>
</svg>
